<svg fill="none" width="85" height="40" xmlns="http://www.w3.org/2000/svg" viewBox="0 0 85 40"><path d="M24.2 4.1c-.3-.5-.8-.5-1.3-.5h-.4c-.2 0-.4 0-.6-.2V2c-.1-.8-.1-1.6-.5-1.9-.2-.2-.9-.2-1.5-.1H3.5C3 .3 3 1.2 3 2v.1c0 .8-.2 1.4-.8 1.3-.8 0-1.5 0-1.8.6-.4.7-.3 1.6-.2 3v.7h24.3v-.5c.2-1.3.3-2.5-.2-3.2Z" fill="#8047F8"/><path fill-rule="evenodd" clip-rule="evenodd" d="m2 9.2 1.2 15.4.6 8.4h.8l.2 1.5c0 1.2.2 2.4.4 3.2.8-.3 6.3-2.6 6.3-11.9H10a.3.3 0 0 1-.3-.3l-.3-1c-.8.5-1.4 1.2-1.8 2a3.8 3.8 0 0 1 1.5-4.8c0-2.7 1-5.3 2.9-7.3l.2-.1a.3.3 0 0 1 .2 0c1.8 2.1 2.9 4.7 2.8 7.5a3.8 3.8 0 0 1 1.5 4.7c-.4-.8-1-1.5-1.8-2 0 .4-.1.7-.3 1 0 .2 0 .2-.2.2h-1.4v.1c0 9.6 5.8 11.7 6.3 12h.2l.3-2.9.2-2h.8l.8-10.4 1-13.5H2v.2Zm10.3 5Z" fill="#8047F8"/><path d="M31.3 5.7c0-1.3.4-2.2 1.3-3 .9-.7 2.2-1 4-1 1.2 0 2.2.1 3 .3v3.3a9 9 0 0 0-2.6-.4c-.9 0-1.4 0-1.7.3-.3.2-.4.5-.4.9v8c0 .7.6 1 1.8 1 1.2 0 2.2 0 3-.3V18c-.9.2-2 .4-3.1.4-1.8 0-3.1-.4-4-1a3.6 3.6 0 0 1-1.3-3V5.7ZM46.6 8c0-.6-.3-1-1-1-.6 0-1 .4-1 1v6.5c0 .6.4 1 1 1 .7 0 1-.4 1-1V8Zm-5.5-.2c0-1.2.4-2.1 1.1-2.8.8-.6 2-1 3.4-1 1.5 0 2.7.4 3.4 1 .8.7 1.1 1.6 1.1 2.8v6.9c0 1.2-.3 2.1-1.1 2.8-.7.7-1.9 1-3.4 1s-2.6-.3-3.4-1a3.6 3.6 0 0 1-1-2.8V7.8ZM52.4 4c0-2.6 1.5-4 4.3-4l1.3.2v2.7h-.7c-.8 0-1.2.4-1.2 1.1v.3H58V7h-2v11.1h-3.6V7.1h-1.3V4.3h1.3V4ZM59.5 4c0-2.6 1.4-4 4.2-4l1.3.2v2.7h-.7c-.8 0-1.2.4-1.2 1.1v.3H65V7h-2v11.1h-3.5V7.1H58V4.3h1.4V4ZM65.8 14.3V7.8c0-1.2.4-2.1 1.1-2.8.8-.6 2-1 3.4-1 3 0 4.4 1.3 4.4 3.8v4.8h-5.4V14c0 .5.1.8.4 1 .2.2.8.3 1.7.3.9 0 1.9-.2 3-.5V18c-1.2.3-2.4.5-3.6.5-3.3 0-5-1.4-5-4.1Zm3.5-4.4h2V8c0-.6-.3-1-1-1s-1 .4-1 1v2ZM76 14.3V7.8c0-1.2.5-2.1 1.2-2.8.8-.6 1.9-1 3.4-1 2.9 0 4.3 1.3 4.3 3.8v4.8h-5.4V14c0 .5.2.8.4 1 .3.2.9.3 1.8.3s1.8-.2 2.9-.5V18c-1.1.3-2.3.5-3.6.5-3.3 0-5-1.4-5-4.1Zm3.5-4.4h2.1V8c0-.6-.3-1-1-1s-1 .4-1 1v2ZM37 27c0-1.2-.6-1.8-1.8-1.8h-2V36h2c1.2 0 1.8-.6 1.8-1.8V27Zm-5.2-3h3.5c1 0 1.8.3 2.3.8.5.6.8 1.3.8 2.2V34a3 3 0 0 1-.8 2.2c-.5.5-1.3.8-2.3.8h-3.5v-13ZM40.7 34.3v-5.4c0-1 .3-1.7.8-2.2.5-.6 1.3-.9 2.4-.9 1 0 1.8.3 2.3.9.6.5.8 1.2.8 2.2v3.4h-5v2c0 .5.2 1 .6 1.2.4.3 1 .5 1.7.5.8 0 1.6-.2 2.4-.4v1.3c-.7.2-1.4.3-2.3.3-2.5 0-3.7-1-3.7-3ZM42 31h3.6V29c0-1.3-.6-1.9-1.8-1.9-1.2 0-1.8.6-1.8 1.9V31ZM49.4 23h1.4v14.1h-1.4v-14ZM54.1 24.8c-.5 0-.8-.3-.8-1 0-.5.3-.8.8-.8.6 0 .9.3.9.9 0 .6-.3.9-.9.9Zm-.6 1.3h1.3v11h-1.3v-11ZM62 26h1.4l-2.5 11.1h-2l-2.4-11H58l1.1 5 1 5 2-10ZM64.9 34.3v-5.4c0-1 .2-1.7.7-2.2.6-.6 1.4-.9 2.4-.9 1.1 0 1.9.3 2.4.9.5.5.8 1.2.8 2.2v3.4h-5v2c0 .5.2 1 .6 1.2.3.3 1 .5 1.7.5s1.5-.2 2.4-.4v1.3c-.7.2-1.5.3-2.4.3-2.4 0-3.6-1-3.6-3Zm1.3-3.2H70V29c0-1.3-.6-1.9-1.9-1.9-1.2 0-1.8.6-1.8 1.9V31ZM77.1 26h.5v1.3H77c-.5 0-1 .1-1.3.4l-.8.5V37h-1.3v-11h1.3v.8a9.4 9.4 0 0 0 .6-.4 8.5 8.5 0 0 1 .5-.3l.3-.1.8-.1ZM83.6 26H85l-3 14h-1.4l.6-2.9h-.7l-2.4-11h1.4l1.2 5.4.8 4.6.9-4.6 1.2-5.5Z" fill="#403937"/></svg>